# xmcd CD database file
#
# Track frame offsets:
#	150
#	28494
#	52672
#	92599
#	113958
#	121492
#	155436
#	186100
#	195969
#
# Disc length: 3168 seconds
#
# Revision: 0
# Processed by: cddbd v1.5.2PL0 Copyright (c) Steve Scherf et al.
# Submitted via: CDex 1.51
#
DISCID=6e0c5e09
DTITLE=Jazz Kamikaze - Travelling at the Speed of Sound
DYEAR=2007
DGENRE=Jazz
TTITLE0=Gold, Gold, I Want Gold
TTITLE1=Up to no Good
TTITLE2=Airborne
TTITLE3=Everest
TTITLE4=Ten Indian Commandments
TTITLE5=Oberst Eger and Oberst Sponz
TTITLE6=Tribute to a Legend
TTITLE7=Speedball
TTITLE8=Until the Sun Comes
EXTD=YEAR: 2007
EXTT0=
EXTT1=
EXTT2=
EXTT3=
EXTT4=
EXTT5=
EXTT6=
EXTT7=
EXTT8=
PLAYORDER=
